<svg width="233" height="199" viewBox="0 0 233 199" fill="none" xmlns="http://www.w3.org/2000/svg">
<path d="M58.2718 145.652L43.357 132.36L43.8616 152.372L12.8299 124.748L14.4159 124.009L42.1953 148.68L41.7414 130.907L27.2402 118.029L28.7809 117.31L41.9504 128.989L41.5145 111.372L42.9193 110.717L43.4572 130.327L56.7143 142.075L55.6529 104.779L57.239 104.04L58.2718 145.652ZM81.3009 133.314C82.8719 132.581 84.1771 131.476 85.2166 129.998C86.2561 128.52 86.9131 126.853 87.1875 124.997L88.2652 127.308C87.725 129.068 86.9241 130.544 85.8625 131.738C84.7868 132.902 83.4031 133.878 81.7113 134.667C79.8383 135.54 77.8386 135.866 75.7121 135.644C73.6159 135.408 71.6819 134.691 69.9102 133.494C68.1686 132.284 66.8612 130.742 65.9877 128.869C65.0439 126.845 64.682 124.807 64.9021 122.755C65.1081 120.673 65.8306 118.791 67.0696 117.11C68.3387 115.415 70.0005 114.088 72.0548 113.13C75.1966 111.665 78.4478 111.657 81.8083 113.106L74.1299 133.789C75.5072 134.14 76.7556 134.293 77.8753 134.249C78.9809 134.175 80.1227 133.863 81.3009 133.314ZM67.3744 128.057C68.5437 130.564 70.3747 132.322 72.8674 133.329L79.9957 113.951C78.5902 113.54 77.3347 113.371 76.2291 113.446C75.1095 113.49 73.9001 113.814 72.6011 114.42C70.7583 115.279 69.302 116.455 68.2323 117.947C67.1786 119.394 66.568 121.003 66.4003 122.773C66.2327 124.543 66.5574 126.304 67.3744 128.057ZM102.268 124.916C100.848 125.578 99.4007 125.867 97.9266 125.782C96.4385 125.666 95.0723 125.182 93.8281 124.327C92.5839 123.473 91.6236 122.321 90.9475 120.871L78.4802 94.1349L79.9303 93.4588L92.3975 120.195C92.961 121.403 93.7401 122.364 94.7346 123.077C95.7594 123.776 96.889 124.187 98.1234 124.311C99.3437 124.404 100.528 124.182 101.676 123.647L102.268 124.916ZM115.273 119.072C113.31 119.988 111.279 120.365 109.18 120.203C107.112 120.027 105.215 119.349 103.487 118.168C101.76 116.988 100.417 115.37 99.4591 113.316C98.5716 111.413 98.2379 109.435 98.458 107.383C98.664 105.301 99.3724 103.389 100.583 101.648C101.824 99.8921 103.457 98.5424 105.481 97.5985C107.173 96.8096 108.749 96.4053 110.211 96.3856C111.673 96.3659 113.246 96.6624 114.929 97.2751L116.07 99.7221C114.383 98.7067 112.744 98.1102 111.153 97.9325C109.579 97.7105 107.885 98.0221 106.072 98.8674C104.411 99.6422 103.044 100.813 101.972 102.379C100.917 103.901 100.289 105.592 100.089 107.45C99.8892 109.309 100.177 111.069 100.951 112.73C101.797 114.543 102.98 115.977 104.502 117.033C106.01 118.058 107.664 118.648 109.465 118.801C111.281 118.911 113.02 118.578 114.682 117.803C118.065 116.225 120.042 113.446 120.614 109.465L121.755 111.912C121.202 113.567 120.395 114.992 119.334 116.185C118.288 117.335 116.935 118.297 115.273 119.072ZM137.554 108.848C135.5 109.806 133.409 110.174 131.283 109.951C129.142 109.699 127.216 108.961 125.505 107.736C123.78 106.481 122.459 104.871 121.543 102.908C120.642 100.974 120.272 98.9582 120.434 96.86C120.626 94.7476 121.312 92.8277 122.492 91.1003C123.689 89.3285 125.299 87.9707 127.324 87.0269C129.317 86.0971 131.362 85.7504 133.459 85.9866C135.571 86.1785 137.483 86.8869 139.194 88.1118C140.906 89.3366 142.212 90.9158 143.114 92.8492C144.057 94.8733 144.471 96.9426 144.353 99.057C144.222 101.141 143.573 103.062 142.406 104.82C141.256 106.533 139.638 107.876 137.554 108.848ZM136.962 107.579C138.684 106.776 140.051 105.605 141.062 104.067C142.074 102.529 142.634 100.852 142.743 99.0353C142.869 97.1747 142.523 95.3683 141.706 93.6161C140.903 91.8941 139.748 90.4831 138.242 89.3832C136.736 88.2832 135.069 87.6262 133.241 87.4123C131.412 87.1983 129.637 87.4927 127.915 88.2957C126.193 89.0987 124.818 90.2914 123.791 91.8739C122.78 93.4121 122.196 95.1186 122.041 96.9933C121.915 98.854 122.254 100.645 123.057 102.367C123.86 104.089 125.014 105.5 126.52 106.6C128.042 107.656 129.718 108.291 131.546 108.505C133.405 108.705 135.21 108.396 136.962 107.579ZM142.482 80.8413L143.932 80.1651L145.369 83.2466C145.645 80.2119 147.324 77.9762 150.406 76.5393C151.886 75.849 153.367 75.6732 154.849 76.012C156.317 76.3205 157.65 77.2069 158.848 78.6713C158.55 77.0078 158.855 75.4131 159.761 73.8869C160.684 72.3165 161.992 71.1368 163.683 70.3479C165.889 69.3195 167.898 69.1731 169.713 69.9087C171.513 70.614 172.962 72.1449 174.061 74.5013L180.358 88.0053L178.908 88.6815L172.611 75.1775C171.723 73.2742 170.527 72.0113 169.023 71.3886C167.55 70.7518 166.012 70.8067 164.411 71.5533C163.202 72.1168 162.226 72.9402 161.48 74.0233C160.721 75.0763 160.271 76.2421 160.132 77.5208C159.993 78.7995 160.205 80.043 160.768 81.2515L166.854 94.3023L165.404 94.9785L159.487 82.2902C158.473 80.115 157.17 78.6627 155.58 77.9333C153.975 77.1736 152.357 77.1742 150.726 77.9349C149.638 78.442 148.723 79.1999 147.979 80.2086C147.266 81.2032 146.811 82.3166 146.613 83.549C146.431 84.737 146.594 85.8749 147.101 86.9624L153.441 100.557L151.99 101.233L142.482 80.8413ZM195.651 79.9911C197.222 79.2585 198.528 78.1534 199.567 76.6756C200.607 75.1978 201.264 73.5306 201.538 71.674L202.616 73.9851C202.076 75.745 201.275 77.2218 200.213 78.4156C199.137 79.5793 197.754 80.5555 196.062 81.3444C194.189 82.2178 192.189 82.5435 190.063 82.3213C187.966 82.0851 186.032 81.3686 184.261 80.172C182.519 78.9612 181.212 77.4193 180.338 75.5462C179.394 73.5222 179.033 71.4841 179.253 69.4322C179.459 67.3501 180.181 65.4684 181.42 63.7873C182.689 62.0921 184.351 60.7656 186.405 59.8076C189.547 58.3426 192.798 58.3344 196.159 59.7833L188.48 80.4662C189.858 80.817 191.106 80.9704 192.226 80.9264C193.331 80.8522 194.473 80.5405 195.651 79.9911ZM181.725 74.7341C182.894 77.2416 184.725 78.9991 187.218 80.0067L194.346 60.6286C192.941 60.2173 191.685 60.0488 190.58 60.123C189.46 60.167 188.251 60.4918 186.952 61.0976C185.109 61.9569 183.653 63.1325 182.583 64.6244C181.529 66.0719 180.919 67.6807 180.751 69.4508C180.583 71.2208 180.908 72.9819 181.725 74.7341ZM193.103 40.6856L194.598 39.9883L208.333 69.4433L206.838 70.1406L193.103 40.6856ZM209.866 74.7419C209.443 74.9391 208.995 74.9642 208.522 74.817C208.079 74.6558 207.752 74.3486 207.54 73.8955C207.343 73.4725 207.325 73.0395 207.486 72.5966C207.678 72.1395 207.985 71.8124 208.408 71.6151C208.831 71.4179 209.264 71.3999 209.707 71.5612C210.18 71.7083 210.515 71.9933 210.713 72.4163C210.924 72.8694 210.934 73.3245 210.742 73.7816C210.581 74.2246 210.289 74.5447 209.866 74.7419Z" fill="#AA00FF"/>
<path d="M59.2567 145.826L44.3418 132.534L44.8464 152.545L13.8147 124.922L15.4008 124.182L43.1801 148.854L42.7262 131.08L28.225 118.202L29.7657 117.484L42.9352 129.162L42.4994 111.546L43.9041 110.891L44.4421 130.501L57.6991 142.249L56.6378 104.953L58.2238 104.214L59.2567 145.826ZM82.2858 133.487C83.8567 132.755 85.1619 131.65 86.2014 130.172C87.241 128.694 87.8979 127.027 88.1724 125.17L89.25 127.481C88.7098 129.241 87.9089 130.718 86.8473 131.912C85.7717 133.075 84.3879 134.052 82.6962 134.841C80.8231 135.714 78.8234 136.04 76.6969 135.818C74.6007 135.581 72.6667 134.865 70.895 133.668C69.1534 132.457 67.846 130.915 66.9726 129.042C66.0287 127.018 65.6668 124.98 65.8869 122.928C66.093 120.846 66.8154 118.965 68.0544 117.284C69.3235 115.588 70.9853 114.262 73.0396 113.304C76.1814 111.839 79.4326 111.831 82.7931 113.28L75.1147 133.962C76.492 134.313 77.7405 134.467 78.8601 134.423C79.9657 134.348 81.1076 134.037 82.2858 133.487ZM68.3593 128.23C69.5285 130.738 71.3595 132.495 73.8522 133.503L80.9805 114.125C79.575 113.714 78.3195 113.545 77.214 113.619C76.0943 113.663 74.885 113.988 73.5859 114.594C71.7431 115.453 70.2868 116.629 69.2171 118.121C68.1635 119.568 67.5528 121.177 67.3852 122.947C67.2175 124.717 67.5422 126.478 68.3593 128.23ZM103.252 125.09C101.832 125.752 100.385 126.04 98.9115 125.955C97.4233 125.84 96.0572 125.355 94.8129 124.501C93.5687 123.647 92.6085 122.495 91.9323 121.045L79.465 94.3086L80.9151 93.6324L93.3824 120.368C93.9459 121.577 94.7249 122.538 95.7195 123.251C96.7443 123.95 97.8738 124.361 99.1082 124.484C100.329 124.577 101.513 124.356 102.661 123.821L103.252 125.09ZM116.258 119.246C114.294 120.161 112.263 120.538 110.165 120.377C108.097 120.201 106.199 119.523 104.472 118.342C102.745 117.161 101.402 115.544 100.444 113.49C99.5564 111.586 99.2227 109.609 99.4428 107.557C99.6488 105.475 100.357 103.563 101.568 101.821C102.809 100.066 104.441 98.716 106.466 97.7722C108.157 96.9833 109.734 96.579 111.196 96.5593C112.658 96.5396 114.231 96.8361 115.914 97.4488L117.055 99.8958C115.368 98.8804 113.729 98.2838 112.138 98.1061C110.564 97.8842 108.87 98.1958 107.057 99.041C105.396 99.8158 104.029 100.986 102.957 102.553C101.902 104.075 101.274 105.765 101.074 107.624C100.874 109.482 101.161 111.243 101.936 112.904C102.781 114.717 103.965 116.151 105.487 117.207C106.995 118.232 108.649 118.821 110.45 118.975C112.266 119.084 114.005 118.752 115.666 117.977C119.05 116.399 121.027 113.62 121.598 109.639L122.739 112.086C122.187 113.741 121.38 115.165 120.319 116.359C119.273 117.509 117.92 118.471 116.258 119.246ZM138.539 109.021C136.484 109.979 134.394 110.347 132.268 110.125C130.127 109.873 128.201 109.134 126.49 107.909C124.764 106.654 123.444 105.045 122.528 103.081C121.627 101.148 121.257 99.1319 121.418 97.0336C121.61 94.9213 122.297 93.0014 123.477 91.2739C124.674 89.5022 126.284 88.1444 128.308 87.2005C130.302 86.2708 132.347 85.924 134.444 86.1602C136.556 86.3522 138.468 87.0606 140.179 88.2854C141.89 89.5103 143.197 91.0894 144.098 93.0229C145.042 95.047 145.455 97.1162 145.338 99.2306C145.207 101.315 144.558 103.236 143.391 104.993C142.241 106.707 140.623 108.049 138.539 109.021ZM137.947 107.753C139.669 106.95 141.036 105.779 142.047 104.241C143.058 102.703 143.619 101.025 143.728 99.209C143.853 97.3483 143.508 95.5419 142.691 93.7897C141.888 92.0677 140.733 90.6568 139.227 89.5568C137.721 88.4569 136.054 87.7999 134.226 87.5859C132.397 87.3719 130.622 87.6664 128.9 88.4694C127.178 89.2724 125.803 90.4651 124.776 92.0476C123.764 93.5858 123.181 95.2923 123.025 97.167C122.9 99.0277 123.239 100.819 124.042 102.541C124.845 104.263 125.999 105.674 127.505 106.774C129.027 107.83 130.702 108.464 132.531 108.678C134.39 108.878 136.195 108.57 137.947 107.753ZM143.466 81.015L144.916 80.3388L146.353 83.4202C146.63 80.3856 148.309 78.1498 151.391 76.7129C152.871 76.0227 154.352 75.8469 155.834 76.1856C157.302 76.4942 158.635 77.3806 159.833 78.8449C159.535 77.1815 159.84 75.5867 160.746 74.0606C161.669 72.4901 162.976 71.3105 164.668 70.5216C166.873 69.4932 168.883 69.3468 170.697 70.0823C172.497 70.7877 173.947 72.3185 175.046 74.6749L181.343 88.1789L179.893 88.8551L173.596 75.3511C172.708 73.4479 171.512 72.1849 170.008 71.5622C168.534 70.9255 166.997 70.9804 165.396 71.727C164.187 72.2905 163.21 73.1138 162.465 74.197C161.705 75.25 161.256 76.4158 161.117 77.6945C160.977 78.9732 161.19 80.2167 161.753 81.4251L167.839 94.4759L166.389 95.1521L160.472 82.4638C159.458 80.2887 158.155 78.8364 156.565 78.107C154.96 77.3473 153.342 77.3478 151.71 78.1085C150.623 78.6157 149.707 79.3736 148.964 80.3823C148.251 81.3768 147.795 82.4903 147.598 83.7226C147.416 84.9107 147.579 86.0485 148.086 87.1361L154.425 100.731L152.975 101.407L143.466 81.015ZM196.636 80.1647C198.207 79.4322 199.512 78.327 200.552 76.8492C201.592 75.3715 202.248 73.7043 202.523 71.8477L203.601 74.1588C203.06 75.9186 202.259 77.3955 201.198 78.5893C200.122 79.7529 198.738 80.7292 197.047 81.5181C195.174 82.3915 193.174 82.7171 191.047 82.495C188.951 82.2588 187.017 81.5423 185.246 80.3456C183.504 79.1348 182.197 77.5929 181.323 75.7199C180.379 73.6958 180.017 71.6578 180.237 69.6059C180.444 67.5237 181.166 65.6421 182.405 63.961C183.674 62.2658 185.336 60.9392 187.39 59.9813C190.532 58.5162 193.783 58.5081 197.144 59.957L189.465 80.6399C190.843 80.9907 192.091 81.1441 193.211 81.1001C194.316 81.0259 195.458 80.7141 196.636 80.1647ZM182.71 74.9078C183.879 77.4152 185.71 79.1727 188.203 80.1804L195.331 60.8022C193.926 60.391 192.67 60.2225 191.565 60.2967C190.445 60.3406 189.236 60.6655 187.936 61.2713C186.094 62.1306 184.637 63.3062 183.568 64.798C182.514 66.2456 181.903 67.8544 181.736 69.6244C181.568 71.3945 181.893 73.1556 182.71 74.9078ZM194.087 40.8593L195.583 40.162L209.318 69.617L207.823 70.3143L194.087 40.8593ZM210.851 74.9156C210.428 75.1128 209.98 75.1378 209.507 74.9907C209.064 74.8295 208.737 74.5223 208.525 74.0691C208.328 73.6462 208.31 73.2132 208.471 72.7702C208.663 72.3132 208.97 71.986 209.393 71.7888C209.816 71.5916 210.249 71.5736 210.692 71.7348C211.165 71.882 211.5 72.167 211.697 72.5899C211.909 73.0431 211.919 73.4982 211.727 73.9553C211.566 74.3982 211.274 74.7183 210.851 74.9156Z" fill="#0000FF"/>
<path d="M60.2415 145.999L45.3266 132.707L45.8312 152.719L14.7995 125.095L16.3856 124.356L44.1649 149.027L43.711 131.254L29.2098 118.376L30.7505 117.657L43.92 129.336L43.4842 111.72L44.8889 111.065L45.4269 130.675L58.6839 142.423L57.6226 105.127L59.2086 104.387L60.2415 145.999ZM83.2706 133.661C84.8415 132.928 86.1467 131.823 87.1862 130.345C88.2258 128.868 88.8827 127.2 89.1572 125.344L90.2348 127.655C89.6946 129.415 88.8937 130.892 87.8321 132.085C86.7565 133.249 85.3727 134.225 83.681 135.014C81.8079 135.888 79.8082 136.213 77.6817 135.991C75.5855 135.755 73.6515 135.038 71.8798 133.842C70.1382 132.631 68.8308 131.089 67.9574 129.216C67.0135 127.192 66.6516 125.154 66.8718 123.102C67.0778 121.02 67.8002 119.138 69.0392 117.457C70.3083 115.762 71.9701 114.435 74.0244 113.477C77.1662 112.012 80.4174 112.004 83.7779 113.453L76.0995 134.136C77.4768 134.487 78.7253 134.64 79.8449 134.596C80.9505 134.522 82.0924 134.21 83.2706 133.661ZM69.3441 128.404C70.5133 130.911 72.3443 132.669 74.837 133.677L81.9653 114.298C80.5598 113.887 79.3043 113.719 78.1988 113.793C77.0791 113.837 75.8698 114.162 74.5707 114.767C72.7279 115.627 71.2716 116.802 70.2019 118.294C69.1483 119.742 68.5376 121.351 68.37 123.121C68.2023 124.891 68.527 126.652 69.3441 128.404ZM104.237 125.263C102.817 125.925 101.37 126.214 99.8963 126.129C98.4081 126.014 97.042 125.529 95.7977 124.675C94.5535 123.821 93.5933 122.668 92.9171 121.218L80.4498 94.4822L81.8999 93.806L94.3672 120.542C94.9307 121.751 95.7097 122.711 96.7043 123.424C97.7291 124.124 98.8586 124.535 100.093 124.658C101.313 124.751 102.497 124.53 103.645 123.994L104.237 125.263ZM117.243 119.419C115.279 120.335 113.248 120.712 111.15 120.55C109.082 120.374 107.184 119.696 105.457 118.516C103.729 117.335 102.387 115.718 101.429 113.663C100.541 111.76 100.207 109.782 100.428 107.731C100.634 105.648 101.342 103.737 102.553 101.995C103.794 100.239 105.426 98.8897 107.45 97.9458C109.142 97.1569 110.719 96.7526 112.181 96.7329C113.643 96.7132 115.216 97.0097 116.899 97.6224L118.04 100.069C116.353 99.054 114.714 98.4574 113.123 98.2798C111.548 98.0578 109.855 98.3694 108.042 99.2147C106.38 99.9895 105.014 101.16 103.942 102.726C102.886 104.248 102.259 105.939 102.059 107.797C101.859 109.656 102.146 111.416 102.921 113.078C103.766 114.89 104.95 116.324 106.472 117.38C107.98 118.406 109.634 118.995 111.434 119.149C113.251 119.258 114.99 118.925 116.651 118.15C120.035 116.573 122.012 113.793 122.583 109.812L123.724 112.259C123.172 113.914 122.365 115.339 121.303 116.533C120.258 117.682 118.904 118.644 117.243 119.419ZM139.524 109.195C137.469 110.153 135.379 110.521 133.252 110.299C131.112 110.046 129.186 109.308 127.475 108.083C125.749 106.828 124.429 105.219 123.513 103.255C122.611 101.321 122.242 99.3055 122.403 97.2073C122.595 95.0949 123.281 93.175 124.462 91.4476C125.659 89.6758 127.269 88.318 129.293 87.3742C131.287 86.4444 133.332 86.0977 135.428 86.3339C137.541 86.5258 139.453 87.2342 141.164 88.4591C142.875 89.6839 144.182 91.2631 145.083 93.1965C146.027 95.2206 146.44 97.2899 146.323 99.4043C146.191 101.488 145.542 103.409 144.376 105.167C143.226 106.88 141.608 108.223 139.524 109.195ZM138.932 107.926C140.654 107.123 142.021 105.953 143.032 104.414C144.043 102.876 144.604 101.199 144.713 99.3826C144.838 97.522 144.492 95.7155 143.675 93.9633C142.872 92.2414 141.718 90.8304 140.212 89.7305C138.706 88.6305 137.039 87.9735 135.21 87.7595C133.382 87.5455 131.607 87.84 129.885 88.643C128.163 89.446 126.788 90.6387 125.761 92.2212C124.749 93.7594 124.166 95.4659 124.01 97.3406C123.885 99.2013 124.224 100.993 125.027 102.715C125.83 104.437 126.984 105.848 128.49 106.947C130.012 108.003 131.687 108.638 133.516 108.852C135.374 109.052 137.18 108.743 138.932 107.926ZM144.451 81.1886L145.901 80.5124L147.338 83.5938C147.615 80.5592 149.294 78.3235 152.375 76.8866C153.856 76.1963 155.337 76.0205 156.819 76.3593C158.287 76.6678 159.62 77.5542 160.817 79.0186C160.52 77.3551 160.824 75.7603 161.731 74.2342C162.654 72.6638 163.961 71.4841 165.653 70.6952C167.858 69.6668 169.868 69.5204 171.682 70.256C173.482 70.9613 174.932 72.4922 176.03 74.8486L182.328 88.3526L180.877 89.0288L174.58 75.5248C173.693 73.6215 172.497 72.3586 170.993 71.7359C169.519 71.0991 167.982 71.154 166.381 71.9006C165.172 72.4641 164.195 73.2875 163.45 74.3706C162.69 75.4236 162.241 76.5894 162.102 77.8681C161.962 79.1468 162.174 80.3903 162.738 81.5987L168.824 94.6496L167.373 95.3258L161.457 82.6375C160.442 80.4623 159.14 79.01 157.549 78.2806C155.945 77.5209 154.327 77.5215 152.695 78.2822C151.608 78.7893 150.692 79.5472 149.949 80.5559C149.236 81.5505 148.78 82.6639 148.583 83.8963C148.401 85.0843 148.564 86.2221 149.071 87.3097L155.41 100.904L153.96 101.581L144.451 81.1886ZM197.621 80.3383C199.192 79.6058 200.497 78.5006 201.537 77.0229C202.576 75.5451 203.233 73.8779 203.508 72.0213L204.585 74.3324C204.045 76.0923 203.244 77.5691 202.183 78.7629C201.107 79.9266 199.723 80.9028 198.031 81.6917C196.158 82.5651 194.159 82.8907 192.032 82.6686C189.936 82.4324 188.002 81.7159 186.23 80.5192C184.489 79.3085 183.181 77.7666 182.308 75.8935C181.364 73.8694 181.002 71.8314 181.222 69.7795C181.428 67.6973 182.151 65.8157 183.39 64.1346C184.659 62.4394 186.321 61.1129 188.375 60.1549C191.517 58.6898 194.768 58.6817 198.128 60.1306L190.45 80.8135C191.827 81.1643 193.076 81.3177 194.195 81.2737C195.301 81.1995 196.443 80.8877 197.621 80.3383ZM183.695 75.0814C184.864 77.5888 186.695 79.3464 189.188 80.354L196.316 60.9758C194.91 60.5646 193.655 60.3961 192.549 60.4703C191.43 60.5143 190.22 60.8391 188.921 61.4449C187.078 62.3042 185.622 63.4798 184.552 64.9717C183.499 66.4192 182.888 68.028 182.721 69.7981C182.553 71.5681 182.878 73.3292 183.695 75.0814ZM195.072 41.0329L196.568 40.3356L210.303 69.7906L208.807 70.4879L195.072 41.0329ZM211.836 75.0892C211.413 75.2864 210.965 75.3115 210.491 75.1643C210.049 75.0031 209.721 74.6959 209.51 74.2427C209.313 73.8198 209.295 73.3868 209.456 72.9439C209.648 72.4868 209.955 72.1597 210.378 71.9624C210.801 71.7652 211.234 71.7472 211.677 71.9084C212.15 72.0556 212.485 72.3406 212.682 72.7636C212.893 73.2167 212.903 73.6718 212.712 74.1289C212.551 74.5719 212.259 74.892 211.836 75.0892Z" fill="#00AAFF"/>
<path d="M61.2263 146.173L46.3114 132.881L46.816 152.893L15.7843 125.269L17.3704 124.53L45.1497 149.201L44.6958 131.428L30.1946 118.55L31.7353 117.831L44.9048 129.51L44.469 111.893L45.8737 111.238L46.4117 130.848L59.6687 142.596L58.6074 105.3L60.1934 104.561L61.2263 146.173ZM84.2554 133.835C85.8263 133.102 87.1315 131.997 88.171 130.519C89.2106 129.041 89.8675 127.374 90.142 125.518L91.2196 127.829C90.6794 129.588 89.8785 131.065 88.8169 132.259C87.7413 133.423 86.3575 134.399 84.6658 135.188C82.7927 136.061 80.793 136.387 78.6665 136.165C76.5703 135.929 74.6363 135.212 72.8646 134.015C71.1231 132.805 69.8156 131.263 68.9422 129.39C67.9983 127.366 67.6365 125.328 67.8566 123.276C68.0626 121.194 68.785 119.312 70.024 117.631C71.2932 115.936 72.9549 114.609 75.0092 113.651C78.151 112.186 81.4022 112.178 84.7627 113.627L77.0843 134.31C78.4616 134.66 79.7101 134.814 80.8297 134.77C81.9353 134.696 83.0772 134.384 84.2554 133.835ZM70.3289 128.578C71.4981 131.085 73.3291 132.843 75.8218 133.85L82.9501 114.472C81.5446 114.061 80.2891 113.892 79.1836 113.966C78.0639 114.01 76.8546 114.335 75.5555 114.941C73.7127 115.8 72.2564 116.976 71.1867 118.468C70.1331 119.915 69.5224 121.524 69.3548 123.294C69.1871 125.064 69.5118 126.825 70.3289 128.578ZM105.222 125.437C103.802 126.099 102.355 126.388 100.881 126.303C99.3929 126.187 98.0268 125.703 96.7825 124.848C95.5383 123.994 94.5781 122.842 93.9019 121.392L81.4346 94.6559L82.8847 93.9797L95.352 120.716C95.9155 121.924 96.6945 122.885 97.6891 123.598C98.7139 124.297 99.8434 124.708 101.078 124.832C102.298 124.925 103.482 124.703 104.63 124.168L105.222 125.437ZM118.228 119.593C116.264 120.509 114.233 120.886 112.135 120.724C110.067 120.548 108.169 119.87 106.442 118.689C104.714 117.509 103.371 115.891 102.413 113.837C101.526 111.934 101.192 109.956 101.412 107.904C101.618 105.822 102.327 103.91 103.538 102.169C104.779 100.413 106.411 99.0633 108.435 98.1195C110.127 97.3306 111.704 96.9263 113.166 96.9066C114.628 96.8869 116.2 97.1834 117.884 97.796L119.025 100.243C117.338 99.2277 115.699 98.6311 114.108 98.4534C112.533 98.2314 110.839 98.5431 109.027 99.3883C107.365 100.163 105.999 101.334 104.927 102.9C103.871 104.422 103.243 106.113 103.044 107.971C102.844 109.83 103.131 111.59 103.906 113.251C104.751 115.064 105.935 116.498 107.457 117.554C108.965 118.579 110.619 119.169 112.419 119.322C114.236 119.432 115.974 119.099 117.636 118.324C121.02 116.746 122.997 113.967 123.568 109.986L124.709 112.433C124.157 114.088 123.35 115.513 122.288 116.706C121.243 117.856 119.889 118.818 118.228 119.593ZM140.508 109.369C138.454 110.327 136.364 110.695 134.237 110.472C132.097 110.22 130.171 109.481 128.459 108.257C126.734 107.002 125.414 105.392 124.498 103.429C123.596 101.495 123.226 99.4792 123.388 97.3809C123.58 95.2686 124.266 93.3487 125.447 91.6212C126.643 89.8495 128.254 88.4917 130.278 87.5478C132.272 86.6181 134.317 86.2713 136.413 86.5075C138.525 86.6995 140.437 87.4079 142.149 88.6327C143.86 89.8576 145.166 91.4367 146.068 93.3702C147.012 95.3943 147.425 97.4635 147.308 99.5779C147.176 101.662 146.527 103.583 145.361 105.341C144.21 107.054 142.593 108.397 140.508 109.369ZM139.917 108.1C141.639 107.297 143.005 106.126 144.017 104.588C145.028 103.05 145.588 101.373 145.698 99.5563C145.823 97.6956 145.477 95.8892 144.66 94.137C143.857 92.415 142.703 91.0041 141.197 89.9041C139.691 88.8042 138.024 88.1472 136.195 87.9332C134.367 87.7192 132.592 88.0137 130.87 88.8167C129.148 89.6196 127.773 90.8124 126.745 92.3949C125.734 93.9331 125.151 95.6396 124.995 97.5143C124.87 99.375 125.208 101.166 126.011 102.888C126.814 104.61 127.969 106.021 129.475 107.121C130.997 108.177 132.672 108.812 134.5 109.026C136.359 109.226 138.165 108.917 139.917 108.1ZM145.436 81.3623L146.886 80.6861L148.323 83.7675C148.6 80.7329 150.279 78.4971 153.36 77.0602C154.841 76.3699 156.322 76.1942 157.804 76.5329C159.272 76.8415 160.605 77.7279 161.802 79.1922C161.505 77.5288 161.809 75.934 162.716 74.4079C163.639 72.8374 164.946 71.6577 166.638 70.8689C168.843 69.8405 170.853 69.6941 172.667 70.4296C174.467 71.135 175.916 72.6658 177.015 75.0222L183.312 88.5262L181.862 89.2024L175.565 75.6984C174.678 73.7952 173.482 72.5322 171.978 71.9095C170.504 71.2727 168.966 71.3277 167.365 72.0743C166.157 72.6378 165.18 73.4611 164.435 74.5443C163.675 75.5973 163.226 76.7631 163.086 78.0418C162.947 79.3204 163.159 80.564 163.723 81.7724L169.808 94.8232L168.358 95.4994L162.442 82.8111C161.427 80.636 160.125 79.1837 158.534 78.4542C156.929 77.6946 155.311 77.6951 153.68 78.4558C152.592 78.963 151.677 79.7209 150.934 80.7295C150.221 81.7241 149.765 82.8376 149.567 84.0699C149.386 85.258 149.549 86.3958 150.056 87.4834L156.395 101.078L154.945 101.754L145.436 81.3623ZM198.606 80.512C200.177 79.7795 201.482 78.6743 202.522 77.1965C203.561 75.7187 204.218 74.0516 204.492 72.195L205.57 74.5061C205.03 76.2659 204.229 77.7428 203.167 78.9366C202.092 80.1002 200.708 81.0765 199.016 81.8654C197.143 82.7388 195.144 83.0644 193.017 82.8423C190.921 82.606 188.987 81.8896 187.215 80.6929C185.474 79.4821 184.166 77.9402 183.293 76.0672C182.349 74.0431 181.987 72.0051 182.207 69.9532C182.413 67.871 183.136 65.9894 184.375 64.3083C185.644 62.6131 187.305 61.2865 189.36 60.3286C192.502 58.8635 195.753 58.8554 199.113 60.3043L191.435 80.9871C192.812 81.3379 194.061 81.4914 195.18 81.4474C196.286 81.3732 197.428 81.0614 198.606 80.512ZM184.679 75.2551C185.849 77.7625 187.68 79.52 190.172 80.5276L197.301 61.1495C195.895 60.7383 194.64 60.5698 193.534 60.644C192.414 60.6879 191.205 61.0128 189.906 61.6185C188.063 62.4779 186.607 63.6535 185.537 65.1453C184.484 66.5929 183.873 68.2017 183.705 69.9717C183.538 71.7417 183.862 73.5029 184.679 75.2551ZM196.057 41.2066L197.552 40.5093L211.288 69.9643L209.792 70.6616L196.057 41.2066ZM212.82 75.2629C212.398 75.4601 211.949 75.4851 211.476 75.338C211.033 75.1767 210.706 74.8696 210.495 74.4164C210.298 73.9935 210.28 73.5605 210.441 73.1175C210.632 72.6605 210.94 72.3333 211.362 72.1361C211.785 71.9389 212.218 71.9209 212.661 72.0821C213.135 72.2292 213.47 72.5143 213.667 72.9372C213.878 73.3904 213.888 73.8455 213.697 74.3026C213.536 74.7455 213.243 75.0656 212.82 75.2629Z" fill="#FFFF00"/>
<path d="M61.2263 146.173L46.3114 132.881L46.816 152.893L15.7843 125.269L17.3704 124.53L45.1497 149.201L44.6958 131.428L30.1946 118.55L31.7353 117.831L44.9048 129.51L44.469 111.893L45.8737 111.238L46.4117 130.848L59.6687 142.596L58.6074 105.3L60.1934 104.561L61.2263 146.173ZM84.2554 133.835C85.8263 133.102 87.1315 131.997 88.171 130.519C89.2106 129.041 89.8675 127.374 90.142 125.518L91.2196 127.829C90.6794 129.588 89.8785 131.065 88.8169 132.259C87.7413 133.423 86.3575 134.399 84.6658 135.188C82.7927 136.061 80.793 136.387 78.6665 136.165C76.5703 135.929 74.6363 135.212 72.8646 134.015C71.1231 132.805 69.8156 131.263 68.9422 129.39C67.9983 127.366 67.6365 125.328 67.8566 123.276C68.0626 121.194 68.785 119.312 70.024 117.631C71.2932 115.936 72.9549 114.609 75.0092 113.651C78.151 112.186 81.4022 112.178 84.7627 113.627L77.0843 134.31C78.4616 134.66 79.7101 134.814 80.8297 134.77C81.9353 134.696 83.0772 134.384 84.2554 133.835ZM70.3289 128.578C71.4981 131.085 73.3291 132.843 75.8218 133.85L82.9501 114.472C81.5446 114.061 80.2891 113.892 79.1836 113.966C78.0639 114.01 76.8546 114.335 75.5555 114.941C73.7127 115.8 72.2564 116.976 71.1867 118.468C70.1331 119.915 69.5224 121.524 69.3548 123.294C69.1871 125.064 69.5118 126.825 70.3289 128.578ZM105.222 125.437C103.802 126.099 102.355 126.388 100.881 126.303C99.3929 126.187 98.0268 125.703 96.7825 124.848C95.5383 123.994 94.5781 122.842 93.9019 121.392L81.4346 94.6559L82.8847 93.9797L95.352 120.716C95.9155 121.924 96.6945 122.885 97.6891 123.598C98.7139 124.297 99.8434 124.708 101.078 124.832C102.298 124.925 103.482 124.703 104.63 124.168L105.222 125.437ZM118.228 119.593C116.264 120.509 114.233 120.886 112.135 120.724C110.067 120.548 108.169 119.87 106.442 118.689C104.714 117.509 103.371 115.891 102.413 113.837C101.526 111.934 101.192 109.956 101.412 107.904C101.618 105.822 102.327 103.91 103.538 102.169C104.779 100.413 106.411 99.0633 108.435 98.1195C110.127 97.3306 111.704 96.9263 113.166 96.9066C114.628 96.8869 116.2 97.1834 117.884 97.796L119.025 100.243C117.338 99.2277 115.699 98.6311 114.108 98.4534C112.533 98.2314 110.839 98.5431 109.027 99.3883C107.365 100.163 105.999 101.334 104.927 102.9C103.871 104.422 103.243 106.113 103.044 107.971C102.844 109.83 103.131 111.59 103.906 113.251C104.751 115.064 105.935 116.498 107.457 117.554C108.965 118.579 110.619 119.169 112.419 119.322C114.236 119.432 115.974 119.099 117.636 118.324C121.02 116.746 122.997 113.967 123.568 109.986L124.709 112.433C124.157 114.088 123.35 115.513 122.288 116.706C121.243 117.856 119.889 118.818 118.228 119.593ZM140.508 109.369C138.454 110.327 136.364 110.695 134.237 110.472C132.097 110.22 130.171 109.481 128.459 108.257C126.734 107.002 125.414 105.392 124.498 103.429C123.596 101.495 123.226 99.4792 123.388 97.3809C123.58 95.2686 124.266 93.3487 125.447 91.6212C126.643 89.8495 128.254 88.4917 130.278 87.5478C132.272 86.6181 134.317 86.2713 136.413 86.5075C138.525 86.6995 140.437 87.4079 142.149 88.6327C143.86 89.8576 145.166 91.4367 146.068 93.3702C147.012 95.3943 147.425 97.4635 147.308 99.5779C147.176 101.662 146.527 103.583 145.361 105.341C144.21 107.054 142.593 108.397 140.508 109.369ZM139.917 108.1C141.639 107.297 143.005 106.126 144.017 104.588C145.028 103.05 145.588 101.373 145.698 99.5563C145.823 97.6956 145.477 95.8892 144.66 94.137C143.857 92.415 142.703 91.0041 141.197 89.9041C139.691 88.8042 138.024 88.1472 136.195 87.9332C134.367 87.7192 132.592 88.0137 130.87 88.8167C129.148 89.6196 127.773 90.8124 126.745 92.3949C125.734 93.9331 125.151 95.6396 124.995 97.5143C124.87 99.375 125.208 101.166 126.011 102.888C126.814 104.61 127.969 106.021 129.475 107.121C130.997 108.177 132.672 108.812 134.5 109.026C136.359 109.226 138.165 108.917 139.917 108.1ZM145.436 81.3623L146.886 80.6861L148.323 83.7675C148.6 80.7329 150.279 78.4971 153.36 77.0602C154.841 76.3699 156.322 76.1942 157.804 76.5329C159.272 76.8415 160.605 77.7279 161.802 79.1922C161.505 77.5288 161.809 75.934 162.716 74.4079C163.639 72.8374 164.946 71.6577 166.638 70.8689C168.843 69.8405 170.853 69.6941 172.667 70.4296C174.467 71.135 175.916 72.6658 177.015 75.0222L183.312 88.5262L181.862 89.2024L175.565 75.6984C174.678 73.7952 173.482 72.5322 171.978 71.9095C170.504 71.2727 168.966 71.3277 167.365 72.0743C166.157 72.6378 165.18 73.4611 164.435 74.5443C163.675 75.5973 163.226 76.7631 163.086 78.0418C162.947 79.3204 163.159 80.564 163.723 81.7724L169.808 94.8232L168.358 95.4994L162.442 82.8111C161.427 80.636 160.125 79.1837 158.534 78.4542C156.929 77.6946 155.311 77.6951 153.68 78.4558C152.592 78.963 151.677 79.7209 150.934 80.7295C150.221 81.7241 149.765 82.8376 149.567 84.0699C149.386 85.258 149.549 86.3958 150.056 87.4834L156.395 101.078L154.945 101.754L145.436 81.3623ZM198.606 80.512C200.177 79.7795 201.482 78.6743 202.522 77.1965C203.561 75.7187 204.218 74.0516 204.492 72.195L205.57 74.5061C205.03 76.2659 204.229 77.7428 203.167 78.9366C202.092 80.1002 200.708 81.0765 199.016 81.8654C197.143 82.7388 195.144 83.0644 193.017 82.8423C190.921 82.606 188.987 81.8896 187.215 80.6929C185.474 79.4821 184.166 77.9402 183.293 76.0672C182.349 74.0431 181.987 72.0051 182.207 69.9532C182.413 67.871 183.136 65.9894 184.375 64.3083C185.644 62.6131 187.305 61.2865 189.36 60.3286C192.502 58.8635 195.753 58.8554 199.113 60.3043L191.435 80.9871C192.812 81.3379 194.061 81.4914 195.18 81.4474C196.286 81.3732 197.428 81.0614 198.606 80.512ZM184.679 75.2551C185.849 77.7625 187.68 79.52 190.172 80.5276L197.301 61.1495C195.895 60.7383 194.64 60.5698 193.534 60.644C192.414 60.6879 191.205 61.0128 189.906 61.6185C188.063 62.4779 186.607 63.6535 185.537 65.1453C184.484 66.5929 183.873 68.2017 183.705 69.9717C183.538 71.7417 183.862 73.5029 184.679 75.2551ZM196.057 41.2066L197.552 40.5093L211.288 69.9643L209.792 70.6616L196.057 41.2066ZM212.82 75.2629C212.398 75.4601 211.949 75.4851 211.476 75.338C211.033 75.1767 210.706 74.8696 210.495 74.4164C210.298 73.9935 210.28 73.5605 210.441 73.1175C210.632 72.6605 210.94 72.3333 211.362 72.1361C211.785 71.9389 212.218 71.9209 212.661 72.0821C213.135 72.2292 213.47 72.5143 213.667 72.9372C213.878 73.3904 213.888 73.8455 213.697 74.3026C213.536 74.7455 213.243 75.0656 212.82 75.2629Z" fill="#00FF00"/>
<path d="M62.2111 146.347L47.2962 133.055L47.8008 153.066L16.7691 125.443L18.3552 124.703L46.1345 149.375L45.6806 131.601L31.1794 118.723L32.7202 118.005L45.8896 129.683L45.4538 112.067L46.8586 111.412L47.3965 131.022L60.6535 142.77L59.5922 105.474L61.1782 104.734L62.2111 146.347ZM85.2402 134.008C86.8111 133.276 88.1163 132.17 89.1559 130.693C90.1954 129.215 90.8524 127.548 91.1268 125.691L92.2045 128.002C91.6642 129.762 90.8634 131.239 89.8018 132.433C88.7261 133.596 87.3424 134.573 85.6506 135.362C83.7775 136.235 81.7778 136.561 79.6514 136.338C77.5551 136.102 75.6211 135.386 73.8494 134.189C72.1079 132.978 70.8004 131.436 69.927 129.563C68.9831 127.539 68.6213 125.501 68.8414 123.449C69.0474 121.367 69.7699 119.486 71.0088 117.804C72.278 116.109 73.9397 114.783 75.994 113.825C79.1359 112.36 82.387 112.352 85.7476 113.8L78.0691 134.483C79.4464 134.834 80.6949 134.988 81.8145 134.944C82.9201 134.869 84.062 134.558 85.2402 134.008ZM71.3137 128.751C72.4829 131.259 74.3139 133.016 76.8066 134.024L83.9349 114.646C82.5295 114.234 81.2739 114.066 80.1684 114.14C79.0487 114.184 77.8394 114.509 76.5403 115.115C74.6975 115.974 73.2412 117.15 72.1715 118.642C71.1179 120.089 70.5073 121.698 70.3396 123.468C70.1719 125.238 70.4966 126.999 71.3137 128.751ZM106.207 125.611C104.787 126.273 103.34 126.561 101.866 126.476C100.378 126.361 99.0116 125.876 97.7673 125.022C96.5231 124.168 95.5629 123.016 94.8867 121.566L82.4195 94.8295L83.8695 94.1534L96.3368 120.889C96.9003 122.098 97.6793 123.059 98.6739 123.772C99.6987 124.471 100.828 124.882 102.063 125.005C103.283 125.098 104.467 124.877 105.615 124.342L106.207 125.611ZM119.213 119.767C117.249 120.682 115.218 121.059 113.12 120.897C111.052 120.722 109.154 120.043 107.426 118.863C105.699 117.682 104.356 116.065 103.398 114.011C102.511 112.107 102.177 110.13 102.397 108.078C102.603 105.996 103.312 104.084 104.522 102.342C105.763 100.587 107.396 99.237 109.42 98.2931C111.112 97.5042 112.689 97.0999 114.151 97.0802C115.613 97.0605 117.185 97.357 118.869 97.9697L120.01 100.417C118.322 99.4013 116.683 98.8047 115.093 98.6271C113.518 98.4051 111.824 98.7167 110.012 99.562C108.35 100.337 106.983 101.507 105.912 103.074C104.856 104.596 104.228 106.286 104.028 108.145C103.828 110.003 104.116 111.763 104.891 113.425C105.736 115.238 106.92 116.672 108.442 117.727C109.95 118.753 111.604 119.342 113.404 119.496C115.22 119.605 116.959 119.272 118.621 118.498C122.004 116.92 123.982 114.141 124.553 110.16L125.694 112.607C125.142 114.262 124.335 115.686 123.273 116.88C122.228 118.03 120.874 118.992 119.213 119.767ZM141.493 109.542C139.439 110.5 137.349 110.868 135.222 110.646C133.082 110.394 131.156 109.655 129.444 108.43C127.719 107.175 126.398 105.566 125.483 103.602C124.581 101.669 124.211 99.6528 124.373 97.5546C124.565 95.4422 125.251 93.5223 126.432 91.7949C127.628 90.0231 129.239 88.6653 131.263 87.7215C133.257 86.7917 135.302 86.445 137.398 86.6812C139.51 86.8731 141.422 87.5815 143.133 88.8064C144.845 90.0312 146.151 91.6104 147.053 93.5438C147.997 95.5679 148.41 97.6372 148.292 99.7516C148.161 101.836 147.512 103.757 146.345 105.514C145.195 107.228 143.578 108.57 141.493 109.542ZM140.902 108.274C142.624 107.471 143.99 106.3 145.002 104.762C146.013 103.224 146.573 101.546 146.682 99.7299C146.808 97.8693 146.462 96.0629 145.645 94.3107C144.842 92.5887 143.688 91.1777 142.182 90.0778C140.676 88.9778 139.008 88.3208 137.18 88.1068C135.352 87.8929 133.576 88.1873 131.854 88.9903C130.132 89.7933 128.758 90.986 127.73 92.5685C126.719 94.1067 126.135 95.8132 125.98 97.6879C125.854 99.5486 126.193 101.34 126.996 103.062C127.799 104.784 128.954 106.195 130.46 107.295C131.982 108.35 133.657 108.985 135.485 109.199C137.344 109.399 139.149 109.091 140.902 108.274ZM146.421 81.5359L147.871 80.8597L149.308 83.9412C149.585 80.9065 151.264 78.6708 154.345 77.2339C155.825 76.5436 157.307 76.3678 158.789 76.7066C160.257 77.0151 161.589 77.9015 162.787 79.3659C162.49 77.7024 162.794 76.1077 163.701 74.5815C164.623 73.0111 165.931 71.8314 167.623 71.0425C169.828 70.0141 171.838 69.8677 173.652 70.6033C175.452 71.3086 176.901 72.8395 178 75.1959L184.297 88.6999L182.847 89.3761L176.55 75.8721C175.663 73.9688 174.467 72.7059 172.963 72.0832C171.489 71.4464 169.951 71.5013 168.35 72.2479C167.142 72.8114 166.165 73.6348 165.419 74.7179C164.66 75.7709 164.211 76.9367 164.071 78.2154C163.932 79.4941 164.144 80.7376 164.707 81.946L170.793 94.9969L169.343 95.6731L163.426 82.9848C162.412 80.8096 161.11 79.3573 159.519 78.6279C157.914 77.8682 156.296 77.8688 154.665 78.6295C153.577 79.1366 152.662 79.8945 151.918 80.9032C151.205 81.8978 150.75 83.0112 150.552 84.2436C150.371 85.4316 150.533 86.5694 151.041 87.657L157.38 101.252L155.93 101.928L146.421 81.5359ZM199.591 80.6856C201.162 79.9531 202.467 78.848 203.506 77.3702C204.546 75.8924 205.203 74.2252 205.477 72.3686L206.555 74.6797C206.015 76.4396 205.214 77.9164 204.152 79.1102C203.077 80.2739 201.693 81.2501 200.001 82.039C198.128 82.9124 196.128 83.2381 194.002 83.0159C191.906 82.7797 189.972 82.0632 188.2 80.8665C186.458 79.6558 185.151 78.1139 184.278 76.2408C183.334 74.2167 182.972 72.1787 183.192 70.1268C183.398 68.0447 184.12 66.163 185.359 64.4819C186.629 62.7867 188.29 61.4602 190.345 60.5022C193.486 59.0371 196.738 59.029 200.098 60.4779L192.42 81.1608C193.797 81.5116 195.045 81.665 196.165 81.621C197.271 81.5468 198.413 81.2351 199.591 80.6856ZM185.664 75.4287C186.833 77.9362 188.664 79.6937 191.157 80.7013L198.285 61.3231C196.88 60.9119 195.624 60.7434 194.519 60.8176C193.399 60.8616 192.19 61.1864 190.891 61.7922C189.048 62.6515 187.592 63.8271 186.522 65.319C185.468 66.7665 184.858 68.3753 184.69 70.1454C184.522 71.9154 184.847 73.6765 185.664 75.4287ZM197.042 41.3802L198.537 40.6829L212.272 70.1379L210.777 70.8352L197.042 41.3802ZM213.805 75.4365C213.382 75.6337 212.934 75.6588 212.461 75.5116C212.018 75.3504 211.691 75.0432 211.48 74.59C211.282 74.1671 211.264 73.7341 211.426 73.2912C211.617 72.8341 211.924 72.507 212.347 72.3097C212.77 72.1125 213.203 72.0945 213.646 72.2558C214.119 72.4029 214.455 72.6879 214.652 73.1109C214.863 73.564 214.873 74.0191 214.682 74.4762C214.52 74.9192 214.228 75.2393 213.805 75.4365Z" fill="#FFAA00"/>
<path d="M63.1959 146.52L48.281 133.228L48.7856 153.24L17.7539 125.616L19.34 124.877L47.1193 149.548L46.6654 131.775L32.1642 118.897L33.705 118.178L46.8744 129.857L46.4386 112.241L47.8434 111.586L48.3813 131.195L61.6383 142.944L60.577 105.648L62.163 104.908L63.1959 146.52ZM86.225 134.182C87.7959 133.449 89.1011 132.344 90.1407 130.866C91.1802 129.389 91.8372 127.721 92.1116 125.865L93.1893 128.176C92.6491 129.936 91.8482 131.413 90.7866 132.606C89.7109 133.77 88.3272 134.746 86.6354 135.535C84.7623 136.409 82.7626 136.734 80.6362 136.512C78.5399 136.276 76.6059 135.559 74.8342 134.363C73.0927 133.152 71.7852 131.61 70.9118 129.737C69.9679 127.713 69.6061 125.675 69.8262 123.623C70.0322 121.541 70.7547 119.659 71.9936 117.978C73.2628 116.283 74.9245 114.956 76.9788 113.998C80.1207 112.533 83.3718 112.525 86.7324 113.974L79.0539 134.657C80.4312 135.008 81.6797 135.161 82.7993 135.117C83.9049 135.043 85.0468 134.731 86.225 134.182ZM72.2985 128.925C73.4677 131.432 75.2987 133.19 77.7914 134.197L84.9197 114.819C83.5143 114.408 82.2588 114.24 81.1532 114.314C80.0335 114.358 78.8242 114.683 77.5251 115.288C75.6823 116.148 74.226 117.323 73.1563 118.815C72.1027 120.263 71.4921 121.872 71.3244 123.642C71.1567 125.412 71.4814 127.173 72.2985 128.925ZM107.192 125.784C105.772 126.446 104.325 126.735 102.851 126.65C101.363 126.535 99.9964 126.05 98.7521 125.196C97.5079 124.342 96.5477 123.189 95.8715 121.739L83.4043 95.0032L84.8543 94.327L97.3216 121.063C97.8851 122.272 98.6641 123.232 99.6587 123.945C100.683 124.645 101.813 125.056 103.047 125.179C104.268 125.272 105.452 125.051 106.6 124.515L107.192 125.784ZM120.197 119.94C118.234 120.856 116.203 121.233 114.104 121.071C112.036 120.895 110.139 120.217 108.411 119.037C106.684 117.856 105.341 116.239 104.383 114.184C103.496 112.281 103.162 110.303 103.382 108.251C103.588 106.169 104.296 104.258 105.507 102.516C106.748 100.76 108.381 99.4106 110.405 98.4668C112.097 97.6779 113.673 97.2736 115.135 97.2539C116.597 97.2342 118.17 97.5307 119.853 98.1433L120.994 100.59C119.307 99.575 117.668 98.9784 116.077 98.8007C114.503 98.5788 112.809 98.8904 110.996 99.7356C109.335 100.51 107.968 101.681 106.896 103.247C105.841 104.769 105.213 106.46 105.013 108.318C104.813 110.177 105.101 111.937 105.875 113.599C106.721 115.411 107.904 116.845 109.426 117.901C110.934 118.927 112.589 119.516 114.389 119.67C116.205 119.779 117.944 119.446 119.606 118.671C122.989 117.094 124.967 114.314 125.538 110.333L126.679 112.78C126.126 114.435 125.319 115.86 124.258 117.054C123.212 118.203 121.859 119.165 120.197 119.94ZM142.478 109.716C140.424 110.674 138.333 111.042 136.207 110.82C134.066 110.567 132.14 109.829 130.429 108.604C128.704 107.349 127.383 105.739 126.468 103.776C125.566 101.842 125.196 99.8265 125.358 97.7282C125.55 95.6159 126.236 93.696 127.416 91.9685C128.613 90.1968 130.224 88.839 132.248 87.8951C134.241 86.9654 136.287 86.6186 138.383 86.8548C140.495 87.0468 142.407 87.7552 144.118 88.98C145.83 90.2049 147.136 91.784 148.038 93.7175C148.981 95.7416 149.395 97.8108 149.277 99.9252C149.146 102.009 148.497 103.93 147.33 105.688C146.18 107.401 144.563 108.744 142.478 109.716ZM141.886 108.447C143.608 107.644 144.975 106.474 145.986 104.935C146.998 103.397 147.558 101.72 147.667 99.9036C147.793 98.0429 147.447 96.2365 146.63 94.4843C145.827 92.7623 144.672 91.3514 143.166 90.2514C141.66 89.1515 139.993 88.4945 138.165 88.2805C136.336 88.0665 134.561 88.361 132.839 89.164C131.117 89.967 129.743 91.1597 128.715 92.7422C127.704 94.2804 127.12 95.9869 126.965 97.8616C126.839 99.7223 127.178 101.514 127.981 103.236C128.784 104.958 129.938 106.369 131.444 107.468C132.966 108.524 134.642 109.159 136.47 109.373C138.329 109.573 140.134 109.264 141.886 108.447ZM147.406 81.7096L148.856 81.0334L150.293 84.1148C150.569 81.0802 152.248 78.8444 155.33 77.4075C156.81 76.7172 158.291 76.5415 159.773 76.8802C161.241 77.1888 162.574 78.0752 163.772 79.5395C163.474 77.8761 163.779 76.2813 164.686 74.7552C165.608 73.1847 166.916 72.0051 168.607 71.2162C170.813 70.1878 172.822 70.0414 174.637 70.7769C176.437 71.4823 177.886 73.0131 178.985 75.3695L185.282 88.8735L183.832 89.5497L177.535 76.0457C176.647 74.1425 175.452 72.8795 173.947 72.2568C172.474 71.6201 170.936 71.675 169.335 72.4216C168.127 72.9851 167.15 73.8084 166.404 74.8916C165.645 75.9446 165.195 77.1104 165.056 78.3891C164.917 79.6678 165.129 80.9113 165.692 82.1197L171.778 95.1705L170.328 95.8467L164.411 83.1584C163.397 80.9833 162.094 79.531 160.504 78.8015C158.899 78.0419 157.281 78.0424 155.65 78.8031C154.562 79.3103 153.647 80.0682 152.903 81.0768C152.19 82.0714 151.735 83.1849 151.537 84.4172C151.355 85.6053 151.518 86.7431 152.025 87.8307L158.365 101.425L156.914 102.101L147.406 81.7096ZM200.576 80.8593C202.146 80.1268 203.452 79.0216 204.491 77.5438C205.531 76.0661 206.188 74.3989 206.462 72.5423L207.54 74.8534C207 76.6132 206.199 78.0901 205.137 79.2839C204.061 80.4475 202.678 81.4238 200.986 82.2127C199.113 83.0861 197.113 83.4117 194.987 83.1896C192.89 82.9533 190.956 82.2369 189.185 81.0402C187.443 79.8294 186.136 78.2875 185.262 76.4145C184.318 74.3904 183.957 72.3524 184.177 70.3005C184.383 68.2183 185.105 66.3367 186.344 64.6556C187.613 62.9604 189.275 61.6338 191.329 60.6759C194.471 59.2108 197.722 59.2027 201.083 60.6516L193.404 81.3345C194.782 81.6852 196.03 81.8387 197.15 81.7947C198.255 81.7205 199.397 81.4087 200.576 80.8593ZM186.649 75.6024C187.818 78.1098 189.649 79.8673 192.142 80.8749L199.27 61.4968C197.865 61.0856 196.609 60.9171 195.504 60.9913C194.384 61.0352 193.175 61.3601 191.876 61.9658C190.033 62.8252 188.577 64.0008 187.507 65.4926C186.453 66.9402 185.843 68.549 185.675 70.319C185.507 72.0891 185.832 73.8502 186.649 75.6024ZM198.027 41.5539L199.522 40.8566L213.257 70.3116L211.762 71.0089L198.027 41.5539ZM214.79 75.6102C214.367 75.8074 213.919 75.8324 213.446 75.6853C213.003 75.5241 212.676 75.2169 212.464 74.7637C212.267 74.3408 212.249 73.9078 212.41 73.4648C212.602 73.0078 212.909 72.6806 213.332 72.4834C213.755 72.2862 214.188 72.2682 214.631 72.4294C215.104 72.5766 215.439 72.8616 215.637 73.2845C215.848 73.7377 215.858 74.1928 215.666 74.6499C215.505 75.0928 215.213 75.4129 214.79 75.6102Z" fill="#FF0000"/>
<path d="M64.1807 146.694L49.2658 133.402L49.7704 153.414L18.7388 125.79L20.3248 125.051L48.1041 149.722L47.6502 131.949L33.1491 119.07L34.6898 118.352L47.8592 130.031L47.4234 112.414L48.8282 111.759L49.3661 131.369L62.6231 143.117L61.5618 105.821L63.1478 105.082L64.1807 146.694ZM87.2098 134.355C88.7807 133.623 90.086 132.518 91.1255 131.04C92.165 129.562 92.822 127.895 93.0964 126.038L94.1741 128.35C93.6339 130.109 92.833 131.586 91.7714 132.78C90.6957 133.944 89.312 134.92 87.6202 135.709C85.7472 136.582 83.7474 136.908 81.621 136.686C79.5247 136.45 77.5908 135.733 75.819 134.536C74.0775 133.326 72.77 131.784 71.8966 129.911C70.9528 127.887 70.5909 125.849 70.811 123.797C71.017 121.714 71.7395 119.833 72.9784 118.152C74.2476 116.457 75.9093 115.13 77.9636 114.172C81.1055 112.707 84.3567 112.699 87.7172 114.148L80.0387 134.831C81.416 135.181 82.6645 135.335 83.7841 135.291C84.8897 135.217 86.0316 134.905 87.2098 134.355ZM73.2833 129.099C74.4526 131.606 76.2835 133.364 78.7762 134.371L85.9046 114.993C84.4991 114.582 83.2436 114.413 82.138 114.487C81.0184 114.531 79.809 114.856 78.51 115.462C76.6671 116.321 75.2109 117.497 74.1411 118.989C73.0875 120.436 72.4769 122.045 72.3092 123.815C72.1415 125.585 72.4662 127.346 73.2833 129.099ZM108.176 125.958C106.756 126.62 105.31 126.908 103.835 126.823C102.347 126.708 100.981 126.224 99.737 125.369C98.4927 124.515 97.5325 123.363 96.8563 121.913L84.3891 95.1768L85.8392 94.5007L98.3064 121.237C98.8699 122.445 99.6489 123.406 100.644 124.119C101.668 124.818 102.798 125.229 104.032 125.352C105.253 125.445 106.437 125.224 107.585 124.689L108.176 125.958ZM121.182 120.114C119.218 121.029 117.188 121.406 115.089 121.245C113.021 121.069 111.123 120.391 109.396 119.21C107.669 118.03 106.326 116.412 105.368 114.358C104.48 112.455 104.147 110.477 104.367 108.425C104.573 106.343 105.281 104.431 106.492 102.69C107.733 100.934 109.366 99.5843 111.39 98.6404C113.081 97.8515 114.658 97.4472 116.12 97.4275C117.582 97.4078 119.155 97.7043 120.838 98.317L121.979 100.764C120.292 99.7486 118.653 99.1521 117.062 98.9744C115.488 98.7524 113.794 99.064 111.981 99.9093C110.32 100.684 108.953 101.855 107.881 103.421C106.826 104.943 106.198 106.633 105.998 108.492C105.798 110.351 106.085 112.111 106.86 113.772C107.706 115.585 108.889 117.019 110.411 118.075C111.919 119.1 113.573 119.69 115.374 119.843C117.19 119.953 118.929 119.62 120.59 118.845C123.974 117.267 125.951 114.488 126.522 110.507L127.663 112.954C127.111 114.609 126.304 116.033 125.243 117.227C124.197 118.377 122.844 119.339 121.182 120.114ZM143.463 109.89C141.409 110.848 139.318 111.216 137.192 110.993C135.051 110.741 133.125 110.002 131.414 108.778C129.689 107.522 128.368 105.913 127.452 103.949C126.551 102.016 126.181 100 126.343 97.9019C126.534 95.7895 127.221 93.8696 128.401 92.1422C129.598 90.3704 131.208 89.0126 133.232 88.0688C135.226 87.139 137.271 86.7923 139.368 87.0285C141.48 87.2204 143.392 87.9288 145.103 89.1537C146.814 90.3785 148.121 91.9577 149.022 93.8911C149.966 95.9152 150.38 97.9845 150.262 100.099C150.131 102.183 149.482 104.104 148.315 105.862C147.165 107.575 145.547 108.918 143.463 109.89ZM142.871 108.621C144.593 107.818 145.96 106.647 146.971 105.109C147.983 103.571 148.543 101.894 148.652 100.077C148.778 98.2166 148.432 96.4102 147.615 94.658C146.812 92.936 145.657 91.525 144.151 90.4251C142.645 89.3251 140.978 88.6681 139.15 88.4542C137.321 88.2402 135.546 88.5346 133.824 89.3376C132.102 90.1406 130.727 91.3333 129.7 92.9158C128.689 94.454 128.105 96.1605 127.949 98.0352C127.824 99.8959 128.163 101.687 128.966 103.409C129.769 105.131 130.923 106.542 132.429 107.642C133.951 108.698 135.627 109.333 137.455 109.547C139.314 109.746 141.119 109.438 142.871 108.621ZM148.39 81.8832L149.84 81.207L151.277 84.2885C151.554 81.2538 153.233 79.0181 156.315 77.5812C157.795 76.8909 159.276 76.7151 160.758 77.0539C162.226 77.3624 163.559 78.2488 164.757 79.7132C164.459 78.0498 164.764 76.455 165.67 74.9288C166.593 73.3584 167.9 72.1787 169.592 71.3898C171.797 70.3614 173.807 70.215 175.621 70.9506C177.421 71.6559 178.871 73.1868 179.97 75.5432L186.267 89.0472L184.817 89.7234L178.52 76.2194C177.632 74.3161 176.436 73.0532 174.932 72.4305C173.458 71.7937 171.921 71.8486 170.32 72.5952C169.111 73.1587 168.134 73.9821 167.389 75.0652C166.63 76.1182 166.18 77.284 166.041 78.5627C165.901 79.8414 166.114 81.0849 166.677 82.2934L172.763 95.3442L171.313 96.0204L165.396 83.3321C164.382 81.1569 163.079 79.7046 161.489 78.9752C159.884 78.2155 158.266 78.2161 156.635 78.9768C155.547 79.4839 154.631 80.2418 153.888 81.2505C153.175 82.2451 152.72 83.3585 152.522 84.5909C152.34 85.7789 152.503 86.9168 153.01 88.0043L159.349 101.599L157.899 102.275L148.39 81.8832ZM201.56 81.033C203.131 80.3004 204.436 79.1953 205.476 77.7175C206.516 76.2397 207.173 74.5725 207.447 72.7159L208.525 75.027C207.984 76.7869 207.184 78.2637 206.122 79.4575C205.046 80.6212 203.663 81.5974 201.971 82.3863C200.098 83.2597 198.098 83.5854 195.972 83.3632C193.875 83.127 191.941 82.4105 190.17 81.2139C188.428 80.0031 187.121 78.4612 186.247 76.5881C185.303 74.5641 184.941 72.526 185.162 70.4741C185.368 68.392 186.09 66.5103 187.329 64.8292C188.598 63.134 190.26 61.8075 192.314 60.8495C195.456 59.3845 198.707 59.3763 202.068 60.8252L194.389 81.5081C195.767 81.8589 197.015 82.0123 198.135 81.9683C199.24 81.8942 200.382 81.5824 201.56 81.033ZM187.634 75.776C188.803 78.2835 190.634 80.041 193.127 81.0486L200.255 61.6705C198.85 61.2592 197.594 61.0907 196.489 61.1649C195.369 61.2089 194.16 61.5337 192.861 62.1395C191.018 62.9988 189.561 64.1744 188.492 65.6663C187.438 67.1138 186.827 68.7226 186.66 70.4927C186.492 72.2627 186.817 74.0238 187.634 75.776ZM199.012 41.7275L200.507 41.0302L214.242 70.4852L212.747 71.1825L199.012 41.7275ZM215.775 75.7838C215.352 75.981 214.904 76.0061 214.431 75.8589C213.988 75.6977 213.661 75.3905 213.449 74.9374C213.252 74.5144 213.234 74.0814 213.395 73.6385C213.587 73.1814 213.894 72.8543 214.317 72.657C214.74 72.4598 215.173 72.4418 215.616 72.6031C216.089 72.7502 216.424 73.0352 216.621 73.4582C216.833 73.9113 216.843 74.3664 216.651 74.8235C216.49 75.2665 216.198 75.5866 215.775 75.7838Z" fill="#EEEEEE"/>
</svg>
